<svg width="150" height="53" viewBox="0 0 150 53" fill="none" xmlns="http://www.w3.org/2000/svg">
<path d="M28.2325 42.1903C25.7591 42.1903 23.5395 41.6195 21.5735 40.4779C19.6075 39.3047 18.0538 37.7192 16.9122 35.7215C15.7707 33.7238 15.1841 31.4725 15.1524 28.9674V7.2782C15.1524 6.54889 15.3743 5.96226 15.8182 5.51833C16.2939 5.0744 16.8805 4.85244 17.5781 4.85244C18.3074 4.85244 18.8941 5.0744 19.338 5.51833C19.7819 5.96226 20.0039 6.54889 20.0039 7.2782V20.1205C21.1137 18.7887 22.4455 17.7423 23.9993 16.9813C25.5847 16.1885 27.3129 15.7922 29.1838 15.7922C31.4985 15.7922 33.5755 16.3788 35.4147 17.5521C37.2538 18.6936 38.6966 20.2632 39.743 22.2609C40.8211 24.2269 41.3602 26.4624 41.3602 28.9674C41.3602 31.4725 40.7735 33.7238 39.6003 35.7215C38.4588 37.7192 36.905 39.3047 34.939 40.4779C32.973 41.6195 30.7375 42.1903 28.2325 42.1903ZM28.2325 37.9095C29.8497 37.9095 31.2924 37.529 32.5608 36.7679C33.8292 35.9752 34.828 34.8971 35.5574 33.5336C36.3184 32.1701 36.6989 30.648 36.6989 28.9674C36.6989 27.2551 36.3184 25.7331 35.5574 24.4013C34.828 23.0695 33.8292 22.0231 32.5608 21.2621C31.2924 20.4693 29.8497 20.0729 28.2325 20.0729C26.647 20.0729 25.2042 20.4693 23.9041 21.2621C22.6358 22.0231 21.6369 23.0695 20.9076 24.4013C20.1783 25.7331 19.8136 27.2551 19.8136 28.9674C19.8136 30.648 20.1783 32.1701 20.9076 33.5336C21.6369 34.8971 22.6358 35.9752 23.9041 36.7679C25.2042 37.529 26.647 37.9095 28.2325 37.9095ZM60.8198 42.1903C58.188 42.1903 55.8415 41.6353 53.7803 40.5255C51.7509 39.384 50.1496 37.8302 48.9764 35.8642C47.8348 33.8665 47.2641 31.5835 47.2641 29.015C47.2641 26.4148 47.8031 24.1318 48.8812 22.1658C49.9911 20.1681 51.5131 18.6143 53.4474 17.5045C55.3817 16.3629 57.6013 15.7922 60.1064 15.7922C62.5797 15.7922 64.7042 16.3471 66.48 17.4569C68.2557 18.535 69.6033 20.0412 70.5229 21.9755C71.4742 23.8781 71.9498 26.0819 71.9498 28.5869C71.9498 29.1894 71.7437 29.6968 71.3315 30.109C70.9193 30.4895 70.3961 30.6797 69.7619 30.6797H51.6875C52.0363 32.8677 53.0352 34.6593 54.6841 36.0545C56.3647 37.418 58.4099 38.0997 60.8198 38.0997C61.8028 38.0997 62.8017 37.9253 63.8164 37.5765C64.8628 37.196 65.7031 36.7679 66.3373 36.2923C66.8129 35.9435 67.3203 35.7691 67.8593 35.7691C68.4301 35.7374 68.9216 35.8959 69.3338 36.2447C69.8729 36.7204 70.1583 37.2436 70.19 37.8144C70.2217 38.3851 69.968 38.8766 69.4289 39.2888C68.3508 40.145 67.0032 40.8426 65.386 41.3817C63.8005 41.9207 62.2785 42.1903 60.8198 42.1903ZM60.1064 19.8827C57.7599 19.8827 55.8732 20.5327 54.4462 21.8328C53.0193 23.1329 52.1156 24.8135 51.7351 26.8746H67.5739C67.2886 24.8452 66.5117 23.1805 65.2433 21.8804C63.9749 20.5486 62.2626 19.8827 60.1064 19.8827ZM88.0533 42.1903C85.7385 42.1903 83.6615 41.6195 81.8224 40.4779C79.9832 39.3047 78.5246 37.7351 77.4465 35.7691C76.4001 33.7714 75.8768 31.52 75.8768 29.015C75.8768 26.51 76.4476 24.2586 77.5892 22.2609C78.7624 20.2632 80.332 18.6936 82.298 17.5521C84.2957 16.3788 86.5312 15.7922 89.0045 15.7922C91.4779 15.7922 93.6975 16.3788 95.6635 17.5521C97.6295 18.6936 99.1833 20.2632 100.325 22.2609C101.498 24.2586 102.085 26.51 102.085 29.015V39.6218C102.085 40.3194 101.847 40.906 101.371 41.3817C100.927 41.8256 100.357 42.0476 99.6589 42.0476C98.9613 42.0476 98.3747 41.8256 97.899 41.3817C97.4551 40.906 97.2331 40.3194 97.2331 39.6218V37.8619C96.1233 39.1937 94.7757 40.256 93.1902 41.0487C91.6364 41.8097 89.9241 42.1903 88.0533 42.1903ZM89.0045 37.9095C90.6217 37.9095 92.0645 37.529 93.3329 36.7679C94.6012 35.9752 95.6001 34.9129 96.3294 33.5812C97.0587 32.2176 97.4234 30.6956 97.4234 29.015C97.4234 27.3027 97.0587 25.7806 96.3294 24.4488C95.6001 23.0853 94.6012 22.0231 93.3329 21.2621C92.0645 20.4693 90.6217 20.0729 89.0045 20.0729C87.4191 20.0729 85.9763 20.4693 84.6762 21.2621C83.4078 22.0231 82.3931 23.0853 81.6321 24.4488C80.9028 25.7806 80.5381 27.3027 80.5381 29.015C80.5381 30.6956 80.9028 32.2176 81.6321 33.5812C82.3931 34.9129 83.4078 35.9752 84.6762 36.7679C85.9763 37.529 87.4191 37.9095 89.0045 37.9095ZM111.731 42.0476C111.033 42.0476 110.447 41.8256 109.971 41.3817C109.527 40.906 109.305 40.3194 109.305 39.6218V18.4558C109.305 17.7265 109.527 17.1398 109.971 16.6959C110.447 16.252 111.033 16.03 111.731 16.03C112.46 16.03 113.047 16.252 113.491 16.6959C113.935 17.1398 114.157 17.6947 114.157 18.3606C114.981 17.5362 115.964 16.902 117.106 16.4581C118.247 15.9824 119.484 15.7446 120.816 15.7446C124.145 15.7446 126.65 16.9971 128.331 19.5022C129.25 18.3289 130.424 17.4094 131.85 16.7435C133.277 16.0776 134.879 15.7446 136.654 15.7446C139.381 15.7446 141.601 16.6325 143.313 18.4082C145.026 20.1839 145.882 22.7207 145.882 26.0185V39.6218C145.882 40.3194 145.66 40.906 145.216 41.3817C144.772 41.8256 144.185 42.0476 143.456 42.0476C142.759 42.0476 142.172 41.8256 141.696 41.3817C141.252 40.906 141.03 40.3194 141.03 39.6218V26.0185C141.03 24.0208 140.539 22.5463 139.556 21.595C138.573 20.612 137.289 20.1205 135.703 20.1205C134.054 20.1205 132.691 20.6913 131.613 21.8328C130.566 22.9744 130.043 24.433 130.043 26.2087V39.6218C130.043 40.3194 129.821 40.906 129.377 41.3817C128.933 41.8256 128.347 42.0476 127.617 42.0476C126.92 42.0476 126.333 41.8256 125.857 41.3817C125.413 40.906 125.192 40.3194 125.192 39.6218V26.0185C125.192 24.0208 124.7 22.5463 123.717 21.595C122.734 20.612 121.45 20.1205 119.864 20.1205C118.215 20.1205 116.852 20.6913 115.774 21.8328C114.696 22.9744 114.157 24.433 114.157 26.2087V39.6218C114.157 40.3194 113.935 40.906 113.491 41.3817C113.047 41.8256 112.46 42.0476 111.731 42.0476Z" fill="#9175DB"/>
<path d="M5.40541 41.8919C8.39073 41.8919 10.8108 39.4718 10.8108 36.4865C10.8108 33.5011 8.39073 31.0811 5.40541 31.0811C2.42008 31.0811 0 33.5011 0 36.4865C0 39.4718 2.42008 41.8919 5.40541 41.8919Z" fill="#9175DB"/>
</svg>
