<svg width="38" height="38" viewBox="0 0 38 38" fill="none" xmlns="http://www.w3.org/2000/svg">
<path d="M13.4582 0.791992H24.5415C24.9787 0.791992 25.3332 1.14646 25.3332 1.58368V4.75037C25.3332 5.1876 24.9787 5.54207 24.5415 5.54207H13.4582C13.021 5.54207 12.6665 5.1876 12.6665 4.75037V1.58368C12.6666 1.14646 13.021 0.791992 13.4582 0.791992Z" fill="#CFD8DC"/>
<path d="M13.7608 0.852507C13.4651 0.729749 13.1245 0.797214 12.8979 1.02351L9.73119 4.1902C9.58283 4.33893 9.49963 4.54058 9.5 4.7507V7.91739C9.5 8.35461 9.85447 8.70908 10.2917 8.70908H13.4584C13.8956 8.70908 14.2501 8.35461 14.2501 7.91739V1.58401C14.25 1.2636 14.0569 0.974893 13.7608 0.852507Z" fill="#ECEFF1"/>
<path d="M28.2689 4.19028L25.1022 1.02359C24.7934 0.714024 24.2922 0.71343 23.9826 1.02218C23.8333 1.17106 23.7496 1.37331 23.75 1.58409V7.9174C23.75 8.35462 24.1045 8.70909 24.5417 8.70909H27.7084C28.1456 8.70909 28.5001 8.35462 28.5001 7.9174V4.75078C28.5004 4.54067 28.4173 4.33902 28.2689 4.19028Z" fill="#ECEFF1"/>
<path d="M37.2083 7.12598H0.791691C0.354469 7.12598 0 7.48037 0 7.91759V34.8343C0 36.1459 1.06333 37.2093 2.375 37.2093H35.625C36.9367 37.2093 38 36.1459 38 34.8343V7.91759C38 7.48037 37.6455 7.12598 37.2083 7.12598Z" fill="#ECEFF1"/>
<path d="M21.1376 22.975L11.8593 32.0792C11.3671 31.702 11.08 31.116 11.0835 30.4959V15.47C11.08 14.8499 11.3671 14.2639 11.8593 13.8867L21.1376 22.975Z" fill="#2196F3"/>
<path d="M28.5002 22.9749C28.5003 23.6954 28.1134 24.3605 27.4869 24.7165L24.5736 26.3315L21.1377 22.9749L24.5735 19.6182L27.4868 21.249C28.1094 21.6013 28.496 22.2596 28.5002 22.9749Z" fill="#FFC107"/>
<path d="M24.5731 26.3323L13.9964 32.2381C13.7034 32.3925 13.3775 32.474 13.0464 32.4756C12.7001 32.4822 12.3593 32.3887 12.0647 32.2064C11.994 32.1677 11.9252 32.1254 11.8589 32.0797L21.1373 22.9756L24.5731 26.3323Z" fill="#F44336"/>
<path d="M24.573 19.6182L21.1372 22.9748L11.8589 13.8865C11.9253 13.8408 11.994 13.7985 12.0647 13.7598C12.6558 13.4016 13.3939 13.3895 13.9964 13.7281L24.573 19.6182Z" fill="#4CAF50"/>
</svg>
